<svg version="1.1" id="Layer_1" xmlns="http://www.w3.org/2000/svg" xmlns:xlink="http://www.w3.org/1999/xlink" x="0px" y="0px"
	 width="100%" viewBox="0 0 512 512" enable-background="new 0 0 512 512" xml:space="preserve">
<path fill="#000000" opacity="1.000000" stroke="none" 
	d="
M513.000000,337.000000 
	C513.000000,395.641693 513.000000,454.283417 513.000000,512.962524 
	C342.430939,512.962524 171.861847,512.962524 1.000000,512.962524 
	C1.000000,402.644836 1.000000,292.289398 1.410037,181.467087 
	C6.887248,182.495987 12.201982,183.443787 16.971455,185.598495 
	C27.804146,190.492432 38.368706,195.979843 49.028088,201.614960 
	C61.068623,246.977295 73.123329,291.950653 85.197601,336.997009 
	C99.552811,336.997009 113.374298,337.060089 127.192856,336.888184 
	C128.419754,336.872925 130.275253,335.595764 130.747986,334.453278 
	C138.856430,314.857086 146.826614,295.203369 154.759109,275.534790 
	C165.741791,248.303345 176.673065,221.051163 187.613480,193.802689 
	C189.900726,188.106033 192.131989,182.386917 194.658371,175.996979 
	C179.914429,175.996979 166.110107,175.932816 152.309113,176.116760 
	C151.185074,176.131760 149.496353,177.622513 149.057755,178.796539 
	C138.612839,206.754761 128.320282,234.769821 117.955940,262.758240 
	C115.630501,269.037964 113.140076,275.256592 110.285942,282.640839 
	C108.600983,275.508820 107.216698,269.649445 105.878952,263.381256 
	C105.246681,258.831543 104.713371,254.660583 103.863770,250.555069 
	C100.292892,233.299713 96.813591,216.021454 92.896538,198.843765 
	C91.509720,192.762054 88.949112,187.171448 83.746552,182.839066 
	C77.256348,177.434326 69.648026,176.240189 61.910591,176.112976 
	C41.611927,175.779251 21.304148,176.000122 1.000000,176.000000 
	C1.000000,117.691673 1.000000,59.383354 1.000000,1.037514 
	C171.568481,1.037514 342.136963,1.037514 513.000000,1.037514 
	C513.000000,109.355171 513.000000,217.710602 512.619324,326.737488 
	C510.494171,320.188965 508.560181,313.008606 507.040741,305.741577 
	C502.468506,283.873749 498.114197,261.960449 493.567383,240.087219 
	C489.453308,220.295990 485.075256,200.558517 481.132111,180.733994 
	C480.514771,177.630173 479.367981,176.950821 476.637268,176.969910 
	C465.811157,177.045654 454.975189,176.734390 444.161041,177.101700 
	C437.735901,177.319931 431.823669,179.514297 428.647339,185.815994 
	C425.791321,191.482101 422.971588,197.186050 420.526886,203.036743 
	C404.792450,240.692551 389.159973,278.390961 373.508392,316.081390 
	C370.675354,322.903625 367.908600,329.753387 364.944275,336.998566 
	C379.077728,336.998566 392.562897,336.904480 406.045013,337.064911 
	C409.403961,337.104889 410.111115,335.027679 410.994446,332.647705 
	C413.945679,324.695801 416.871460,316.732056 420.026520,308.860779 
	C420.502899,307.672272 422.138458,306.149963 423.253967,306.136658 
	C438.371490,305.956299 453.491852,306.015503 468.508942,306.015503 
	C470.522095,316.562775 472.443115,326.627075 474.423004,337.000000 
	C487.397919,337.000000 500.198944,337.000000 513.000000,337.000000 
M368.652710,217.591248 
	C369.069397,217.104126 369.764801,216.666519 369.861450,216.122543 
	C371.603333,206.317291 373.264191,196.497711 374.963318,186.684814 
	C375.461823,183.805939 374.005646,182.808411 371.419586,181.910019 
	C359.250092,177.682297 346.739014,176.738083 333.969879,176.933105 
	C319.264404,177.157684 305.489655,180.274017 292.648560,187.677658 
	C279.012939,195.539383 270.250458,206.946899 268.187988,222.490189 
	C265.984161,239.099075 273.028625,252.083145 287.014465,260.898132 
	C296.809814,267.071930 307.336487,272.078278 317.204498,278.146057 
	C325.853699,283.464355 327.689575,290.999756 321.831177,296.884094 
	C319.022278,299.705475 314.896667,302.010895 311.007721,302.818756 
	C297.189178,305.689423 283.569153,304.092804 270.378510,299.071350 
	C265.866791,297.353790 261.401215,295.514984 256.519287,293.574432 
	C254.937485,303.630157 253.298035,312.949585 252.052704,322.321411 
	C251.074860,329.680298 251.238602,329.892792 258.417816,331.948822 
	C273.617645,336.301819 289.073120,337.940277 304.946899,337.133026 
	C320.666412,336.333679 335.239746,332.650818 348.406982,323.884277 
	C365.317993,312.625153 373.405334,290.168396 366.955688,271.508728 
	C361.751312,256.451843 348.977997,249.157196 336.055145,242.019119 
	C328.930481,238.083740 321.701874,234.179657 315.171814,229.375641 
	C310.186035,225.707703 310.687531,220.817932 315.082306,216.404022 
	C319.677826,211.788483 325.634766,210.548019 331.679047,210.070557 
	C344.397919,209.065872 356.425690,212.026138 368.652710,217.591248 
M188.501129,308.992554 
	C187.027573,318.158417 185.554001,327.324310 184.000031,336.990326 
	C197.399185,336.990326 210.530518,337.088074 223.654282,336.817932 
	C224.791275,336.794495 226.630936,334.465576 226.871155,332.999023 
	C229.092194,319.439423 230.948898,305.820709 233.076019,292.244965 
	C235.984055,273.685211 238.988770,255.140198 242.038818,236.603149 
	C245.325699,216.626678 248.712799,196.666687 252.114487,176.351318 
	C250.540833,176.216705 249.270309,176.016403 247.999359,176.013626 
	C236.672348,175.988998 225.342514,176.140244 214.019745,175.919952 
	C210.247147,175.846558 209.264755,177.442123 208.930908,180.803619 
	C208.398300,186.166473 207.460876,191.492935 206.589417,196.817581 
	C204.426666,210.032150 202.164658,223.230545 200.017883,236.447678 
	C198.079056,248.384552 196.213379,260.333527 194.364609,272.284760 
	C192.513290,284.252350 190.722794,296.229340 188.501129,308.992554 
z"/>
<path fill="#2394BC" opacity="1.000000" stroke="none" 
	d="
M513.000000,336.545898 
	C500.198944,337.000000 487.397919,337.000000 474.423004,337.000000 
	C472.443115,326.627075 470.522095,316.562775 468.508942,306.015503 
	C453.491852,306.015503 438.371490,305.956299 423.253967,306.136658 
	C422.138458,306.149963 420.502899,307.672272 420.026520,308.860779 
	C416.871460,316.732056 413.945679,324.695801 410.994446,332.647705 
	C410.111115,335.027679 409.403961,337.104889 406.045013,337.064911 
	C392.562897,336.904480 379.077728,336.998566 364.944275,336.998566 
	C367.908600,329.753387 370.675354,322.903625 373.508392,316.081390 
	C389.159973,278.390961 404.792450,240.692551 420.526886,203.036743 
	C422.971588,197.186050 425.791321,191.482101 428.647339,185.815994 
	C431.823669,179.514297 437.735901,177.319931 444.161041,177.101700 
	C454.975189,176.734390 465.811157,177.045654 476.637268,176.969910 
	C479.367981,176.950821 480.514771,177.630173 481.132111,180.733994 
	C485.075256,200.558517 489.453308,220.295990 493.567383,240.087219 
	C498.114197,261.960449 502.468506,283.873749 507.040741,305.741577 
	C508.560181,313.008606 510.494171,320.188965 512.619324,327.204468 
	C513.000000,330.030609 513.000000,333.061188 513.000000,336.545898 
M459.492310,266.976440 
	C456.134430,253.007919 452.776550,239.039413 449.418671,225.070892 
	C449.135132,225.083939 448.851593,225.097000 448.568054,225.110046 
	C443.602966,240.997726 438.637909,256.885406 433.678711,272.754272 
	C442.813019,272.754272 451.753510,272.754272 460.732269,272.754272 
	C460.429413,270.910828 460.166992,269.313599 459.492310,266.976440 
z"/>
<path fill="#EEC75E" opacity="1.000000" stroke="none" 
	d="
M49.042267,201.225998 
	C38.368706,195.979843 27.804146,190.492432 16.971455,185.598495 
	C12.201982,183.443787 6.887248,182.495987 1.410037,181.000107 
	C1.000000,179.611115 1.000000,178.222214 1.000000,176.416656 
	C21.304148,176.000122 41.611927,175.779251 61.910591,176.112976 
	C69.648026,176.240189 77.256348,177.434326 83.746552,182.839066 
	C88.949112,187.171448 91.509720,192.762054 92.896538,198.843765 
	C96.813591,216.021454 100.292892,233.299713 103.863770,250.555069 
	C104.713371,254.660583 105.246681,258.831543 105.638893,263.163361 
	C99.220711,253.521820 93.847496,243.100433 86.777855,233.996368 
	C76.453079,220.700470 63.853439,209.578323 49.042267,201.225998 
z"/>
<path fill="#2394BC" opacity="1.000000" stroke="none" 
	d="
M368.294861,217.456726 
	C356.425690,212.026138 344.397919,209.065872 331.679047,210.070557 
	C325.634766,210.548019 319.677826,211.788483 315.082306,216.404022 
	C310.687531,220.817932 310.186035,225.707703 315.171814,229.375641 
	C321.701874,234.179657 328.930481,238.083740 336.055145,242.019119 
	C348.977997,249.157196 361.751312,256.451843 366.955688,271.508728 
	C373.405334,290.168396 365.317993,312.625153 348.406982,323.884277 
	C335.239746,332.650818 320.666412,336.333679 304.946899,337.133026 
	C289.073120,337.940277 273.617645,336.301819 258.417816,331.948822 
	C251.238602,329.892792 251.074860,329.680298 252.052704,322.321411 
	C253.298035,312.949585 254.937485,303.630157 256.519287,293.574432 
	C261.401215,295.514984 265.866791,297.353790 270.378510,299.071350 
	C283.569153,304.092804 297.189178,305.689423 311.007721,302.818756 
	C314.896667,302.010895 319.022278,299.705475 321.831177,296.884094 
	C327.689575,290.999756 325.853699,283.464355 317.204498,278.146057 
	C307.336487,272.078278 296.809814,267.071930 287.014465,260.898132 
	C273.028625,252.083145 265.984161,239.099075 268.187988,222.490189 
	C270.250458,206.946899 279.012939,195.539383 292.648560,187.677658 
	C305.489655,180.274017 319.264404,177.157684 333.969879,176.933105 
	C346.739014,176.738083 359.250092,177.682297 371.419586,181.910019 
	C374.005646,182.808411 375.461823,183.805939 374.963318,186.684814 
	C373.264191,196.497711 371.603333,206.317291 369.861450,216.122543 
	C369.764801,216.666519 369.069397,217.104126 368.294861,217.456726 
z"/>
<path fill="#2394BC" opacity="1.000000" stroke="none" 
	d="
M49.028091,201.614960 
	C63.853439,209.578323 76.453079,220.700470 86.777855,233.996368 
	C93.847496,243.100433 99.220711,253.521820 105.592361,263.572205 
	C107.216698,269.649445 108.600983,275.508820 110.285942,282.640839 
	C113.140076,275.256592 115.630501,269.037964 117.955940,262.758240 
	C128.320282,234.769821 138.612839,206.754761 149.057755,178.796539 
	C149.496353,177.622513 151.185074,176.131760 152.309113,176.116760 
	C166.110107,175.932816 179.914429,175.996979 194.658371,175.996979 
	C192.131989,182.386917 189.900726,188.106033 187.613480,193.802689 
	C176.673065,221.051163 165.741791,248.303345 154.759109,275.534790 
	C146.826614,295.203369 138.856430,314.857086 130.747986,334.453278 
	C130.275253,335.595764 128.419754,336.872925 127.192856,336.888184 
	C113.374298,337.060089 99.552811,336.997009 85.197601,336.997009 
	C73.123329,291.950653 61.068623,246.977295 49.028091,201.614960 
z"/>
<path fill="#2394BC" opacity="1.000000" stroke="none" 
	d="
M188.703384,308.597382 
	C190.722794,296.229340 192.513290,284.252350 194.364609,272.284760 
	C196.213379,260.333527 198.079056,248.384552 200.017883,236.447678 
	C202.164658,223.230545 204.426666,210.032150 206.589417,196.817581 
	C207.460876,191.492935 208.398300,186.166473 208.930908,180.803619 
	C209.264755,177.442123 210.247147,175.846558 214.019745,175.919952 
	C225.342514,176.140244 236.672348,175.988998 247.999359,176.013626 
	C249.270309,176.016403 250.540833,176.216705 252.114487,176.351318 
	C248.712799,196.666687 245.325699,216.626678 242.038818,236.603149 
	C238.988770,255.140198 235.984055,273.685211 233.076019,292.244965 
	C230.948898,305.820709 229.092194,319.439423 226.871155,332.999023 
	C226.630936,334.465576 224.791275,336.794495 223.654282,336.817932 
	C210.530518,337.088074 197.399185,336.990326 184.000031,336.990326 
	C185.554001,327.324310 187.027573,318.158417 188.703384,308.597382 
z"/>
<path fill="#000000" opacity="1.000000" stroke="none" 
	d="
M459.698456,267.346436 
	C460.166992,269.313599 460.429413,270.910828 460.732269,272.754272 
	C451.753510,272.754272 442.813019,272.754272 433.678711,272.754272 
	C438.637909,256.885406 443.602966,240.997726 448.568054,225.110046 
	C448.851593,225.097000 449.135132,225.083939 449.418671,225.070892 
	C452.776550,239.039413 456.134430,253.007919 459.698456,267.346436 
z"/>
</svg>