<?xml version="1.0" encoding="UTF-8"?>
<svg xmlns="http://www.w3.org/2000/svg" xmlns:xlink="http://www.w3.org/1999/xlink" width="350px" height="197px" viewBox="0 0 350 197" version="1.1">
<g id="surface1">
<path style=" stroke:none;fill-rule:nonzero;fill:rgb(37.254903%,14.509805%,62.352943%);fill-opacity:1;" d="M 85.226562 131.890625 C 84.234375 131.796875 83.234375 131.726562 82.246094 131.597656 C 75.773438 130.738281 70.007812 128.246094 65.03125 124.003906 C 59.832031 119.621094 56.121094 113.726562 54.414062 107.140625 C 53.464844 103.585938 53.136719 99.890625 53.445312 96.226562 C 53.957031 89.824219 56.09375 84.011719 59.980469 78.90625 C 65.421875 71.757812 72.617188 67.390625 81.5 66.070312 C 91.199219 64.625 99.949219 67.074219 107.511719 73.285156 C 114.027344 78.628906 117.957031 85.582031 119.152344 93.925781 C 120.558594 103.761719 118.035156 112.59375 111.625 120.199219 C 106.226562 126.613281 99.261719 130.316406 90.988281 131.5625 C 89.953125 131.722656 88.898438 131.785156 87.855469 131.890625 Z M 79.132812 88.027344 C 76.460938 88.027344 73.792969 88.027344 71.121094 88.027344 C 70.40625 88.027344 70.152344 88.246094 70.09375 88.949219 C 70.03125 89.628906 70.042969 90.320312 70.132812 91 C 70.28125 92.1875 71.292969 93.074219 72.484375 93.066406 C 73.101562 93.078125 73.714844 93.066406 74.332031 93.066406 C 75.097656 93.066406 75.097656 93.066406 75.097656 93.824219 C 75.097656 96.6875 75.097656 99.550781 75.097656 102.417969 C 75.097656 103.558594 75.246094 104.699219 75.542969 105.804688 C 76.363281 108.882812 78.15625 111.085938 81.269531 112.003906 C 83.871094 112.773438 86.484375 112.585938 89.050781 111.746094 C 89.652344 111.546875 89.664062 111.546875 89.664062 112.1875 C 89.664062 113.960938 89.652344 115.738281 89.664062 117.511719 C 89.65625 118.28125 89.957031 119.019531 90.5 119.5625 C 91.042969 120.105469 91.78125 120.402344 92.546875 120.390625 C 93.390625 120.390625 94.234375 120.40625 95.078125 120.390625 C 95.371094 120.398438 95.65625 120.28125 95.863281 120.074219 C 96.070312 119.867188 96.183594 119.582031 96.179688 119.289062 C 96.179688 119.078125 96.179688 118.867188 96.179688 118.65625 C 96.179688 110.375 96.179688 102.097656 96.179688 93.824219 C 96.179688 92.878906 96.179688 92.878906 97.09375 92.878906 C 98.167969 92.878906 99.238281 92.878906 100.3125 92.878906 C 101.105469 92.878906 101.335938 92.636719 101.335938 91.828125 C 101.335938 91.304688 101.335938 90.777344 101.335938 90.246094 C 101.316406 88.808594 100.355469 87.851562 98.90625 87.839844 C 97.640625 87.828125 96.375 87.828125 95.113281 87.839844 C 94.773438 87.863281 94.449219 87.71875 94.238281 87.453125 C 93.765625 86.886719 93.273438 86.335938 92.789062 85.78125 C 90.03125 82.59375 87.269531 79.410156 84.5 76.230469 C 83.839844 75.402344 82.839844 74.929688 81.785156 74.945312 C 80.074219 74.96875 78.558594 75.714844 76.980469 76.246094 C 76.503906 76.40625 76.453125 77.015625 76.789062 77.402344 C 76.90625 77.53125 77.03125 77.65625 77.160156 77.773438 C 80.5625 81.007812 83.96875 84.238281 87.371094 87.46875 C 87.496094 87.585938 87.71875 87.695312 87.664062 87.871094 C 87.59375 88.105469 87.332031 88.007812 87.152344 88.007812 C 84.480469 88.007812 81.808594 88.007812 79.136719 88.007812 M 296.8125 109.53125 C 296.460938 110.109375 295.953125 110.316406 295.261719 110.3125 C 291.765625 110.285156 288.269531 110.3125 284.769531 110.289062 C 284.257812 110.289062 284.027344 110.40625 284.046875 110.953125 C 284.066406 111.355469 283.960938 111.757812 283.957031 112.160156 C 283.929688 114.097656 285.171875 115.394531 287.117188 115.535156 C 289.058594 115.675781 290.902344 115.140625 292.664062 114.320312 C 293.921875 113.738281 294.171875 113.804688 294.941406 114.984375 C 295.492188 115.820312 295.96875 116.671875 295.589844 117.738281 C 295.382812 118.363281 294.945312 118.886719 294.367188 119.199219 C 291.6875 120.617188 288.820312 121.03125 285.835938 120.769531 C 284.429688 120.664062 283.054688 120.289062 281.792969 119.65625 C 278.828125 118.117188 277.34375 115.613281 277.203125 112.359375 C 277.085938 109.640625 277.144531 106.910156 277.1875 104.1875 C 277.261719 99.535156 280.421875 96.144531 285.132812 95.589844 C 286.808594 95.359375 288.507812 95.417969 290.164062 95.761719 C 293.921875 96.621094 296.171875 99.078125 296.714844 102.898438 C 296.738281 103.035156 296.773438 103.171875 296.804688 103.308594 Z M 287.355469 106.34375 C 288.335938 106.34375 289.320312 106.34375 290.304688 106.34375 C 290.660156 106.34375 290.816406 106.214844 290.816406 105.851562 C 290.816406 105.289062 290.816406 104.726562 290.816406 104.167969 C 290.753906 102.371094 289.738281 101.171875 287.949219 100.945312 C 285.6875 100.65625 284.019531 101.820312 283.972656 104.226562 C 283.972656 104.738281 283.992188 105.25 283.972656 105.765625 C 283.957031 106.277344 284.144531 106.371094 284.59375 106.355469 C 285.523438 106.332031 286.453125 106.355469 287.386719 106.355469 M 141.164062 115.449219 C 141.164062 116.679688 141.164062 117.910156 141.164062 119.140625 C 141.164062 119.980469 140.726562 120.46875 139.882812 120.492188 C 138.566406 120.519531 137.25 120.519531 135.929688 120.492188 C 135.164062 120.472656 134.742188 120.042969 134.648438 119.289062 C 134.625 119.082031 134.613281 118.871094 134.617188 118.660156 C 134.617188 109.3125 134.617188 99.964844 134.617188 90.617188 C 134.617188 90.359375 134.640625 90.125 134.664062 89.882812 C 134.710938 89.191406 135.191406 88.605469 135.859375 88.425781 C 138.746094 87.464844 141.703125 86.886719 144.753906 86.96875 C 147.152344 87.035156 149.417969 87.609375 151.417969 88.988281 C 153.722656 90.570312 155.105469 92.773438 155.4375 95.519531 C 155.808594 98.257812 155.796875 101.03125 155.394531 103.765625 C 154.683594 107.972656 151.273438 111.199219 147.035156 111.664062 C 145.203125 111.886719 143.386719 111.882812 141.625 111.242188 C 141.234375 111.097656 141.171875 111.273438 141.171875 111.605469 C 141.171875 112.886719 141.171875 114.171875 141.171875 115.453125 M 141.375 99.199219 C 141.375 101.023438 141.390625 102.847656 141.375 104.675781 C 141.332031 105.0625 141.574219 105.425781 141.949219 105.542969 C 142.914062 105.980469 143.921875 105.988281 144.945312 105.933594 C 147.339844 105.804688 149.042969 104.046875 149.042969 101.644531 C 149.03125 99.863281 149.179688 98.085938 148.851562 96.304688 C 148.597656 94.875 147.972656 93.757812 146.632812 93.132812 C 145.046875 92.390625 143.429688 92.488281 141.804688 92.980469 C 141.433594 93.09375 141.390625 93.339844 141.390625 93.667969 C 141.390625 95.507812 141.390625 97.351562 141.390625 99.199219 M 253.886719 104.574219 L 253.886719 90.597656 C 253.886719 89.140625 254.214844 88.703125 255.589844 88.269531 C 258.289062 87.421875 261.042969 86.898438 263.882812 86.960938 C 266.613281 87.023438 269.164062 87.707031 271.335938 89.472656 C 273.238281 90.976562 274.457031 93.179688 274.722656 95.589844 C 275.078125 98.207031 275.078125 100.863281 274.722656 103.480469 C 274.082031 107.742188 271.222656 110.644531 266.957031 111.539062 C 264.996094 112 262.941406 111.910156 261.027344 111.285156 C 260.558594 111.121094 260.453125 111.246094 260.457031 111.707031 C 260.472656 114.117188 260.457031 116.523438 260.457031 118.929688 C 260.457031 120.0625 260.023438 120.507812 258.917969 120.515625 C 257.8125 120.519531 256.667969 120.515625 255.542969 120.515625 C 254.417969 120.515625 253.917969 120.035156 253.902344 118.878906 L 253.902344 104.574219 Z M 260.65625 99.1875 C 260.65625 101.03125 260.667969 102.878906 260.65625 104.722656 C 260.621094 105.074219 260.832031 105.40625 261.167969 105.523438 C 262.128906 105.976562 263.136719 105.996094 264.164062 105.945312 C 266.59375 105.828125 268.292969 104.070312 268.316406 101.640625 C 268.316406 100.460938 268.316406 99.28125 268.316406 98.105469 C 268.289062 97.179688 268.136719 96.261719 267.863281 95.378906 C 267.601562 94.429688 266.941406 93.640625 266.046875 93.222656 C 264.488281 92.429688 262.867188 92.492188 261.222656 92.921875 C 261.042969 92.945312 260.882812 93.042969 260.773438 93.1875 C 260.664062 93.332031 260.617188 93.511719 260.640625 93.691406 C 260.667969 95.523438 260.640625 97.347656 260.640625 99.175781 M 159.03125 103.628906 C 159.03125 98.53125 159.03125 93.433594 159.03125 88.335938 C 159.03125 87.179688 159.449219 86.75 160.621094 86.757812 C 161.464844 86.757812 162.308594 86.683594 163.148438 86.828125 C 164.410156 87.011719 165.386719 88.03125 165.523438 89.300781 C 165.695312 91.003906 165.558594 92.710938 165.589844 94.414062 C 165.589844 94.871094 165.605469 95.328125 165.589844 95.785156 C 165.574219 96.171875 165.675781 96.335938 166.105469 96.214844 C 167.257812 95.914062 168.441406 95.726562 169.632812 95.664062 C 174.121094 95.324219 177.714844 97.953125 178.679688 102.332031 C 178.910156 103.34375 179.027344 104.375 179.027344 105.410156 C 179.027344 109.929688 179.027344 114.445312 179.027344 118.964844 C 179.027344 120.023438 178.582031 120.484375 177.535156 120.503906 C 176.863281 120.515625 176.195312 120.515625 175.53125 120.503906 C 174.710938 120.507812 173.921875 120.183594 173.34375 119.601562 C 172.765625 119.019531 172.445312 118.226562 172.457031 117.40625 C 172.445312 113.574219 172.445312 109.742188 172.457031 105.910156 C 172.484375 105.152344 172.398438 104.398438 172.199219 103.667969 C 171.816406 102.425781 170.96875 101.738281 169.703125 101.546875 C 168.53125 101.40625 167.34375 101.484375 166.203125 101.785156 C 165.71875 101.894531 165.566406 102.132812 165.570312 102.628906 C 165.582031 107.902344 165.582031 113.175781 165.570312 118.445312 C 165.570312 118.65625 165.570312 118.871094 165.570312 119.078125 C 165.5 120.039062 165.054688 120.488281 164.09375 120.5 C 162.878906 120.515625 161.667969 120.515625 160.453125 120.5 C 159.460938 120.5 159.015625 120.023438 159.015625 119.03125 C 159.015625 113.902344 159.015625 108.769531 159.015625 103.640625 M 182.457031 107.964844 C 182.515625 106.738281 182.351562 105.144531 182.542969 103.578125 C 183.007812 99.765625 185.105469 97.300781 188.761719 96.214844 C 191.707031 95.289062 194.878906 95.390625 197.761719 96.503906 C 201.125 97.8125 202.882812 100.367188 203.167969 103.941406 C 203.375 106.574219 203.265625 109.210938 203.238281 111.847656 C 203.210938 114.480469 202.402344 116.894531 200.296875 118.691406 C 198.714844 120.039062 196.832031 120.664062 194.8125 120.921875 C 192.644531 121.226562 190.433594 121.023438 188.363281 120.320312 C 184.757812 119.078125 182.511719 115.980469 182.46875 112.167969 C 182.449219 110.886719 182.46875 109.605469 182.46875 107.96875 M 189.371094 108.035156 C 189.371094 109.457031 189.355469 110.597656 189.371094 111.738281 C 189.410156 113.753906 190.351562 114.910156 192.300781 115.15625 C 194.605469 115.453125 196.605469 114.644531 196.679688 111.839844 C 196.738281 109.503906 196.71875 107.167969 196.679688 104.832031 C 196.644531 102.925781 195.652344 101.707031 193.972656 101.375 C 193.46875 101.296875 192.957031 101.28125 192.449219 101.328125 C 190.789062 101.40625 189.667969 102.460938 189.449219 104.101562 C 189.269531 105.503906 189.421875 106.910156 189.363281 108.035156 M 243.238281 110.300781 C 241.429688 110.300781 239.621094 110.316406 237.808594 110.300781 C 237.351562 110.300781 237.164062 110.46875 237.148438 110.898438 C 237.128906 111.492188 236.96875 112.078125 237.050781 112.691406 C 237.269531 114.324219 238.464844 115.417969 240.144531 115.550781 C 242.097656 115.703125 243.90625 115.222656 245.644531 114.390625 C 247.019531 113.734375 247.292969 113.8125 248.109375 115.113281 C 248.65625 115.980469 249.109375 116.871094 248.621094 117.9375 C 248.449219 118.421875 248.113281 118.832031 247.667969 119.09375 C 243.4375 121.238281 239.089844 121.660156 234.742188 119.578125 C 232.039062 118.292969 230.585938 115.914062 230.355469 112.945312 C 230.132812 109.773438 230.132812 106.585938 230.355469 103.414062 C 230.585938 99.84375 232.945312 97.015625 236.507812 95.996094 C 238.949219 95.273438 241.550781 95.265625 243.996094 95.976562 C 247.328125 96.949219 249.230469 99.257812 249.78125 102.648438 C 250.121094 104.757812 250 106.890625 249.960938 109.015625 C 249.941406 109.914062 249.449219 110.308594 248.519531 110.3125 L 243.238281 110.3125 M 240.472656 106.355469 C 241.472656 106.355469 242.472656 106.355469 243.472656 106.355469 C 243.800781 106.355469 243.960938 106.25 243.949219 105.898438 C 243.933594 105.355469 243.964844 104.808594 243.9375 104.269531 C 243.84375 102.402344 242.8125 101.191406 241.023438 100.960938 C 239.171875 100.714844 237.402344 101.433594 237.082031 103.765625 C 236.984375 104.464844 237.054688 105.167969 237.023438 105.871094 C 237.003906 106.238281 237.167969 106.363281 237.523438 106.355469 C 238.507812 106.34375 239.488281 106.355469 240.472656 106.355469 M 207.027344 108.816406 C 207.027344 105.53125 207.027344 102.242188 207.027344 98.957031 C 207.027344 97.84375 207.390625 97.386719 208.445312 97.035156 C 211.074219 96.125 213.835938 95.652344 216.617188 95.636719 C 219.3125 95.636719 221.90625 96.109375 224.046875 97.945312 C 225.761719 99.421875 226.558594 101.367188 226.902344 103.546875 C 226.996094 104.261719 227.035156 104.984375 227.015625 105.703125 C 227.015625 110.113281 227.015625 114.527344 227.015625 118.9375 C 227.015625 120.070312 226.59375 120.5 225.453125 120.492188 C 224.59375 120.492188 223.730469 120.570312 222.875 120.429688 C 221.449219 120.199219 220.523438 119.148438 220.519531 117.703125 C 220.503906 113.957031 220.519531 110.214844 220.519531 106.46875 C 220.539062 105.625 220.472656 104.785156 220.324219 103.953125 C 219.988281 102.308594 218.90625 101.386719 217.234375 101.3125 C 216.234375 101.277344 215.234375 101.335938 214.242188 101.492188 C 213.730469 101.570312 213.589844 101.796875 213.59375 102.289062 C 213.605469 107.664062 213.605469 113.042969 213.59375 118.421875 C 213.59375 118.632812 213.59375 118.847656 213.59375 119.054688 C 213.566406 119.742188 213 120.289062 212.3125 120.289062 C 210.957031 120.3125 209.601562 120.316406 208.25 120.289062 C 207.480469 120.273438 207.027344 119.75 207.023438 118.9375 C 207.023438 115.558594 207.023438 112.1875 207.023438 108.8125 "/>
<path style=" stroke:none;fill-rule:nonzero;fill:rgb(37.254903%,14.509805%,62.352943%);fill-opacity:1;" d="M 89.679688 99.613281 C 89.679688 101.566406 89.664062 103.515625 89.679688 105.464844 C 89.726562 105.855469 89.472656 106.222656 89.085938 106.3125 C 87.835938 106.742188 86.507812 106.902344 85.1875 106.78125 C 82.945312 106.570312 81.695312 105.242188 81.503906 102.96875 C 81.332031 100.878906 81.457031 98.789062 81.421875 96.699219 C 81.40625 95.671875 81.421875 94.664062 81.421875 93.644531 C 81.421875 93.222656 81.5625 93.050781 82.003906 93.050781 C 84.359375 93.066406 86.714844 93.070312 89.066406 93.050781 C 89.578125 93.050781 89.6875 93.257812 89.683594 93.714844 C 89.667969 95.679688 89.683594 97.648438 89.683594 99.613281 "/>
</g>
</svg>
